<?xml version="1.0" encoding="UTF-8" standalone="no"?>
<!-- Created with Inkscape (http://www.inkscape.org/) -->

<svg
   xmlns:dc="http://purl.org/dc/elements/1.1/"
   xmlns:cc="http://creativecommons.org/ns#"
   xmlns:rdf="http://www.w3.org/1999/02/22-rdf-syntax-ns#"
   xmlns:svg="http://www.w3.org/2000/svg"
   xmlns="http://www.w3.org/2000/svg"
   version="1.1"
   width="139.99998"
   height="140.00026"
   id="svg2"
   xml:space="preserve"><metadata
     id="metadata8"><rdf:RDF><cc:Work
         rdf:about=""><dc:format>image/svg+xml</dc:format><dc:type
           rdf:resource="http://purl.org/dc/dcmitype/StillImage" /><dc:title></dc:title></cc:Work></rdf:RDF></metadata><defs
     id="defs6" /><g
     transform="matrix(1.25,0,0,-1.25,-37,379.00027)"
     id="g10"><g
       transform="matrix(0.02222222,0,0,0.02222222,37.6,199.2)"
       id="g12"><path
         d="m 3466.92,2820.62 -343.94,0 -481.67,-1321.59 343.95,0 481.66,1321.59 z M 2160,0 c -21.48,0 -42.86,0.390625 -64.19,1.01172 l 441.43,1213.17828 607.5,0 c 106.63,0 223.68,81.97 260.14,182.12 l 478.92,1315.46 c 78.35,215.36 -45.01,391.57 -274.18,391.57 l -842.79,0 -707.15,-1943.16 -0.27,0 L 1658.53,58.6406 C 707.441,284.77 0,1139.73 0,2160 0,3150.85 667.203,3985.8 1576.83,4240.27 l -413.66,-1136.93 -0.12,0 -687.659,-1889.15 457.785,-0.04 584.814,1605.31 344.04,0 -584.82,-1605.31 457.61,-0.08 544.98,1497.7 c 78.4,215.36 -44.97,391.57 -273.92,391.57 l -384.82,0 441.86,1214.4 c 32.2,1.42 64.54,2.27 97.08,2.27 1192.94,0 2160,-967.06 2160,-2160.01 C 4320,967.082 3352.94,0 2160,0"
         id="path14"
         style="fill:#1ea6e6;fill-opacity:1;fill-rule:nonzero;stroke:none" /></g></g></svg>